<svg width="200" height="200" viewBox="0 0 200 200" fill="none" xmlns="http://www.w3.org/2000/svg">
<path d="M12.5 33.3333V45.8333C12.5 80.4167 30.9167 110.667 58.3333 127.5V166.667H183.333V150C183.333 127.833 138.917 116.667 116.667 116.667H114.583C75 116.667 41.6667 83.3333 41.6667 45.8333V33.3333M116.667 33.3333C107.826 33.3333 99.3476 36.8452 93.0964 43.0964C86.8452 49.3477 83.3333 57.8261 83.3333 66.6667C83.3333 75.5072 86.8452 83.9857 93.0964 90.2369C99.3476 96.4881 107.826 100 116.667 100C125.507 100 133.986 96.4881 140.237 90.2369C146.488 83.9857 150 75.5072 150 66.6667C150 57.8261 146.488 49.3477 140.237 43.0964C133.986 36.8452 125.507 33.3333 116.667 33.3333Z" fill="#666666"/>
</svg>
